<svg width="40" height="40" viewBox="0 0 40 40" fill="none" xmlns="http://www.w3.org/2000/svg">
  <circle cx="20" cy="20" r="20" fill="#3366ff" fill-opacity="0.1"/>
  <path d="M20 28C24.4183 28 28 24.4183 28 20C28 15.5817 24.4183 12 20 12C15.5817 12 12 15.5817 12 20C12 24.4183 15.5817 28 20 28Z" stroke="#3366ff" stroke-width="2" stroke-linecap="round" stroke-linejoin="round"/>
  <path d="M12 20H28" stroke="#3366ff" stroke-width="2" stroke-linecap="round" stroke-linejoin="round"/>
  <path d="M20 12C22.5013 14.7384 23.9228 18.292 24 22C24.0772 18.292 25.4987 14.7384 28 12C25.4987 9.26159 24.0772 5.70799 24 2C23.9228 5.70799 22.5013 9.26159 20 12Z" stroke="#3366ff" stroke-width="2" stroke-linecap="round" stroke-linejoin="round"/>
</svg>
