<svg width="40" height="40" viewBox="0 0 40 40" fill="none" xmlns="http://www.w3.org/2000/svg">
  <circle cx="20" cy="20" r="20" fill="#3366ff" fill-opacity="0.1"/>
  <path d="M20 8C13.373 8 8 13.373 8 20C8 26.627 13.373 32 20 32C26.627 32 32 26.627 32 20C32 13.373 26.627 8 20 8ZM20 30C14.486 30 10 25.514 10 20C10 14.486 14.486 10 20 10C25.514 10 30 14.486 30 20C30 25.514 25.514 30 20 30Z" fill="#3366ff"/>
  <path d="M28 20C28 16.134 24.866 13 21 13C17.134 13 14 16.134 14 20C14 23.866 17.134 27 21 27" stroke="#3366ff" stroke-width="2" stroke-linecap="round"/>
  <path d="M20 15V20L23 23" stroke="#3366ff" stroke-width="2" stroke-linecap="round" stroke-linejoin="round"/>
</svg>
